# xmcd
#
# Track frame offsets:
#	150
#	14548
#	28826
#	38629
#	50544
#	54691
#	64845
#	73874
#	85145
#	98367
#	104027
#	107798
#	115178
#	131429
#	139032
#	149795
#	160213
#	168292
#	176322
#	188188
#	190923
#	202762
#	216725
#
# Disc length: 3023 seconds
#
# Revision: 0
# Processed by: cddbd v1.5.2PL0 Copyright (c) Steve Scherf et al.
# Submitted via: EasyCDDAExtractor 12.0.1.1
#
DISCID=550bcd17
DTITLE=Nitty Gritty Dirt Band - Uncle Charlie And His Dog Teddy
DYEAR=1970
DGENRE=Country
TTITLE0=Some Of Shelley's Blues - Mike Nesmith
TTITLE1=Prodigal's Return - Kenny Loggins And Dan Lotermoser
TTITLE2=The Cure - Jeff Hanna
TTITLE3=Travelin' Mood - James Waynes
TTITLE4=Chicken Reel - Arranged By Walter McEuen
TTITLE5=Yukon Railroad - Kenny Loggins And Dan Lottermoser
TTITLE6=Living Without You - Randy Newman
TTITLE7=Clinch Mountain Backstep - Ruby Rakes
TTITLE8=Rave On - Norman Petty
TTITLE9=Billy In The Low Ground - Arranged By Les Thompson
TTITLE10=Jesse James - Traditional
TTITLE11=Uncle Charlie Interview
TTITLE12=Mr. Bojangles - Jerry Jeff Walker
TTITLE13=Opus 36 - Arranged By Walter McEuen (Instrumental)
TTITLE14=Santa Rosa- Kenny Loggins
TTITLE15=Propinquity - Mike Nesmith
TTITLE16=Uncle Charlie - Jimmie Fadden
TTITLE17=Randy Lynn Rag - Earl Scruggs (Instrumental)
TTITLE18=The House At Pooh Corner - Kenny Loggins
TTITLE19=Swanee River - Arranged By Jimmie Fadden
TTITLE20=Uncle Charlie Interview 2 - Spanish Fandango
TTITLE21=Mississippi Rain
TTITLE22=What Goes On
EXTD=
EXTT0=
EXTT1=
EXTT2=
EXTT3=
EXTT4=
EXTT5=
EXTT6=
EXTT7=
EXTT8=
EXTT9=
EXTT10=
EXTT11=
EXTT12=
EXTT13=
EXTT14=
EXTT15=
EXTT16=
EXTT17=
EXTT18=
EXTT19=
EXTT20=
EXTT21=
EXTT22=
PLAYORDER=
